<svg width="26" height="26" viewBox="0 0 26 26" fill="none" xmlns="http://www.w3.org/2000/svg">
<path d="M24.6924 3.34323L23.7401 2.39098C21.9967 0.647513 19.17 0.647513 17.4265 2.39093C17.4265 2.39093 17.4265 2.39093 17.4265 2.39098L5.25849 14.559C4.66796 15.1522 4.33544 15.9546 4.33331 16.7917V18.9584C4.33331 19.8558 5.06085 20.5834 5.9583 20.5834H8.12498C8.96201 20.581 9.76435 20.2486 10.3577 19.6582L19.3418 10.6742C19.5569 10.4663 19.5629 10.1234 19.3551 9.90822C19.1472 9.69306 18.8044 9.68712 18.5892 9.89491C18.5846 9.89928 18.5802 9.9037 18.5758 9.90822L9.5918 18.8923C9.20195 19.2801 8.67484 19.4984 8.12498 19.5H5.9583C5.65915 19.5 5.41662 19.2575 5.41662 18.9583V16.7917C5.4181 16.2417 5.63651 15.7146 6.02437 15.3248L18.1924 3.15691C19.5313 1.8817 21.6354 1.8817 22.9742 3.15691L23.9265 4.10916C25.2464 5.42983 25.2464 7.5703 23.9265 8.89097L10.3577 22.4597C9.48023 23.3422 8.28611 23.8368 7.04167 23.8334H2.70831C1.81086 23.8334 1.08331 23.1058 1.08331 22.2084V17.875C1.08677 16.6319 1.58036 15.4404 2.457 14.559L12.8418 4.17416C13.057 3.96632 13.0629 3.62344 12.8551 3.40823C12.6472 3.19307 12.3044 3.18708 12.0892 3.39493C12.0846 3.39929 12.0802 3.40371 12.0759 3.40823L1.69106 13.793C0.612014 14.878 0.00436718 16.3448 0 17.875V22.2083C0 23.7041 1.21255 24.9166 2.70831 24.9166H7.04162C8.57338 24.92 10.043 24.3112 11.1236 23.2256L24.6923 9.65685C26.4359 7.91343 26.4359 5.08675 24.6924 3.34323Z" fill="#CFD8DC"/>
<path d="M7.04167 24.8333H2.70831C1.21255 24.8333 0 23.6208 0 22.125V17.7916C0.00436718 16.2614 0.612014 14.7946 1.69106 13.7097L12.0759 3.32486C12.2838 3.1097 12.6266 3.1037 12.8418 3.31155C13.0571 3.5194 13.063 3.86227 12.8551 4.07748C12.8508 4.082 12.8464 4.08642 12.8418 4.09079L2.457 14.4756C1.58041 15.357 1.08682 16.5486 1.08331 17.7916V22.125C1.08331 23.0224 1.81086 23.75 2.70831 23.75H7.04162C8.28611 23.7534 9.48018 23.2587 10.3577 22.3763L23.9264 8.80755C25.2464 7.48688 25.2464 5.3464 23.9264 4.02574L22.9742 3.07349C21.6353 1.79827 19.5312 1.79827 18.1923 3.07349L6.02442 15.2415C5.63656 15.6313 5.41815 16.1584 5.41667 16.7083V18.875C5.41667 19.1742 5.6592 19.4167 5.95836 19.4167H8.12498C8.67484 19.4151 9.20195 19.1967 9.5918 18.8089L18.5758 9.82489C18.7837 9.60973 19.1266 9.60374 19.3418 9.81159C19.5569 10.0194 19.5629 10.3623 19.3551 10.5775C19.3507 10.582 19.3463 10.5865 19.3418 10.5908L10.3577 19.5748C9.76435 20.1652 8.96201 20.4976 8.12498 20.5H5.9583C5.06085 20.5 4.33331 19.7725 4.33331 18.875V16.7083C4.33544 15.8713 4.66791 15.0689 5.25849 14.4756L17.4265 2.30761C19.1699 0.564139 21.9966 0.564139 23.7401 2.30756C23.7401 2.30756 23.7401 2.30756 23.7401 2.30761L24.6924 3.25986C26.4359 5.00333 26.4359 7.83001 24.6924 9.57348C24.6924 9.57348 24.6924 9.57348 24.6924 9.57353L11.1237 23.1423C10.043 24.2279 8.57343 24.8367 7.04167 24.8333Z" fill="black"/>
</svg>
