<svg width="20" height="19" viewBox="0 0 20 19" fill="none" xmlns="http://www.w3.org/2000/svg">
<g clip-path="url(#clip0_156_1184)">
<path d="M13.894 0H5.18023C2.34426 0 0.0371094 2.30716 0.0371094 5.14312V13.857C0.0371094 16.6928 2.34426 19 5.18023 19H13.8941C16.7299 19 19.0371 16.6928 19.0371 13.857V5.14312C19.0371 2.30716 16.7299 0 13.894 0V0ZM17.9232 13.857C17.9232 16.0786 16.1157 17.8861 13.894 17.8861H5.18023C2.95845 17.8861 1.15097 16.0786 1.15097 13.857V5.14312C1.15097 2.92134 2.95845 1.11386 5.18023 1.11386H13.8941C16.1157 1.11386 17.9232 2.92134 17.9232 5.14312V13.857Z" fill="white"/>
<path d="M9.53696 4.30469C6.67229 4.30469 4.3418 6.63518 4.3418 9.49985C4.3418 12.3645 6.67229 14.695 9.53696 14.695C12.4016 14.695 14.7321 12.3645 14.7321 9.49985C14.7321 6.63518 12.4016 4.30469 9.53696 4.30469ZM9.53696 13.5811C7.28662 13.5811 5.45566 11.7503 5.45566 9.49985C5.45566 7.24951 7.28662 5.41855 9.53696 5.41855C11.7874 5.41855 13.6183 7.24951 13.6183 9.49985C13.6183 11.7503 11.7874 13.5811 9.53696 13.5811Z" fill="white"/>
<path d="M14.8564 2.45996C14.0098 2.45996 13.3213 3.14866 13.3213 3.99507C13.3213 4.84162 14.0098 5.53032 14.8564 5.53032C15.703 5.53032 16.3916 4.84162 16.3916 3.99507C16.3916 3.14851 15.703 2.45996 14.8564 2.45996ZM14.8564 4.41632C14.6242 4.41632 14.4351 4.22729 14.4351 3.99507C14.4351 3.7627 14.6242 3.57382 14.8564 3.57382C15.0888 3.57382 15.2778 3.7627 15.2778 3.99507C15.2778 4.22729 15.0888 4.41632 14.8564 4.41632Z" fill="white"/>
</g>
<defs>
<clipPath id="clip0_156_1184">
<rect width="19" height="19" fill="white" transform="translate(0.0371094)"/>
</clipPath>
</defs>
</svg>
