<svg width="10" height="10" viewBox="0 0 10 10" fill="none" xmlns="http://www.w3.org/2000/svg">
<path d="M6.69336 3.46472C6.69336 3.42175 6.6582 3.3866 6.61523 3.3866L5.9707 3.38953L5 4.54675L4.03027 3.3905L3.38477 3.38757C3.3418 3.38757 3.30664 3.42175 3.30664 3.4657C3.30664 3.48425 3.31348 3.50183 3.3252 3.51648L4.5957 5.03015L3.3252 6.54285C3.31339 6.55716 3.30685 6.57508 3.30664 6.59363C3.30664 6.6366 3.3418 6.67175 3.38477 6.67175L4.03027 6.66882L5 5.5116L5.96973 6.66785L6.61426 6.67078C6.65723 6.67078 6.69238 6.6366 6.69238 6.59265C6.69238 6.5741 6.68555 6.55652 6.67383 6.54187L5.40527 5.02917L6.67578 3.5155C6.6875 3.50183 6.69336 3.48328 6.69336 3.46472Z" fill="#747682"/>
<path d="M5 0.634766C2.58398 0.634766 0.625 2.59375 0.625 5.00977C0.625 7.42578 2.58398 9.38477 5 9.38477C7.41602 9.38477 9.375 7.42578 9.375 5.00977C9.375 2.59375 7.41602 0.634766 5 0.634766ZM5 8.64258C2.99414 8.64258 1.36719 7.01562 1.36719 5.00977C1.36719 3.00391 2.99414 1.37695 5 1.37695C7.00586 1.37695 8.63281 3.00391 8.63281 5.00977C8.63281 7.01562 7.00586 8.64258 5 8.64258Z" fill="#747682"/>
</svg>
